<svg xmlns="http://www.w3.org/2000/svg" viewBox="0 0 128 128">
  <defs>
    <linearGradient id="bg" x1="0" y1="0" x2="0" y2="1">
      <stop offset="0%" stop-color="#555"/>
      <stop offset="100%" stop-color="#1a1a1a"/>
    </linearGradient>
    <filter id="sh">
      <feDropShadow dx="0" dy="2" stdDeviation="2" flood-opacity="0.4"/>
    </filter>
  </defs>
  <g filter="url(#sh)" fill="url(#bg)" stroke="#000" stroke-width="1.5" stroke-linejoin="round">
    <!-- Horse head - simple clean shape -->
    <path d="
      M58 14 L52 10 L54 18
      C48 22 42 30 40 40
      C38 48 38 50 34 52
      L40 56
      C42 54 44 50 44 44
      C44 40 46 36 50 32
      C50 44 48 58 46 68
      L46 92
      L80 92
      L80 68
      C80 54 82 42 84 34
      C86 26 84 18 78 14
      C72 10 64 12 58 14
      Z"/>
    <!-- Eye -->
    <circle cx="62" cy="26" r="2.5" fill="#888" stroke="none"/>
    <circle cx="62" cy="26" r="1" fill="#333" stroke="none"/>
    <!-- Nostril -->
    <ellipse cx="42" cy="48" rx="2" ry="1.5" fill="#888" stroke="none"/>
    <!-- Base rim -->
    <rect x="40" y="92" width="46" height="7" rx="3"/>
    <!-- Base -->
    <rect x="36" y="99" width="54" height="12" rx="4"/>
  </g>
</svg>
