<svg xmlns="http://www.w3.org/2000/svg" viewBox="0 0 640 400" width="640" height="400"><defs><radialGradient id="bg"><stop stop-color="#30423d"/><stop offset="1" stop-color="#152120"/></radialGradient><pattern id="grid" width="40" height="40" patternUnits="userSpaceOnUse"><path d="M40 0H0V40" fill="none" stroke="#33453e"/></pattern></defs><style>.structure{stroke:#d4dbd4;stroke-width:3;fill:none}.muted{stroke:#71877c;stroke-width:2;fill:none}.gold{stroke:#edca70;stroke-width:3;fill:none}.blue{stroke:#a8cecd;stroke-width:3;fill:none}.heavy{stroke-width:5}.guide{stroke:#97ab9e;stroke-width:2;stroke-dasharray:7 8;fill:none}path,rect,circle{stroke-linecap:round;stroke-linejoin:round}</style><path fill="url(#bg)" d="M0 0H640V400H0Z"/><path fill="url(#grid)" opacity=".4" d="M0 0H640V400H0Z"/><path class="structure" d="M72 326H172V282H262V238H352V194H442V150H555"/><path class="muted" d="M90 217 450 42M172 179V282M262 135V238M352 91V194"/><circle class="gold" cx="275" cy="110" r="17"/><path class="gold heavy" d="M275 128V189M275 155 307 136M275 189 250 233M275 189 294 228"/><circle class="blue" cx="445" cy="240" r="17"/><path class="blue heavy" d="M445 258V309M445 279 404 263M445 309 416 348M445 309 474 345"/><path class="blue" d="M383 238H425V267H383Z"/></svg>