<svg xmlns="http://www.w3.org/2000/svg" viewBox="0 0 640 400" width="640" height="400"><defs><radialGradient id="bg"><stop stop-color="#30423d"/><stop offset="1" stop-color="#152120"/></radialGradient><pattern id="grid" width="40" height="40" patternUnits="userSpaceOnUse"><path d="M40 0H0V40" fill="none" stroke="#33453e"/></pattern></defs><style>.structure{stroke:#d4dbd4;stroke-width:3;fill:none}.muted{stroke:#71877c;stroke-width:2;fill:none}.gold{stroke:#edca70;stroke-width:3;fill:none}.blue{stroke:#a8cecd;stroke-width:3;fill:none}.heavy{stroke-width:5}.guide{stroke:#97ab9e;stroke-width:2;stroke-dasharray:7 8;fill:none}path,rect,circle{stroke-linecap:round;stroke-linejoin:round}</style><path fill="url(#bg)" d="M0 0H640V400H0Z"/><path fill="url(#grid)" opacity=".4" d="M0 0H640V400H0Z"/><path class="structure" d="M97 279H550M122 279V345M523 279V345"/><path class="muted" d="M125 299H521"/><path class="gold" d="M194 141V84H255V141L279 169V275H171V169ZM186 73H263V90H186Z"/><path class="gold" d="m225 183 27 32-27 32-27-32ZM225 201V221M225 233h0"/><path class="structure" d="M373 141V103H425V141L449 169V275H349V169ZM365 92H434V110H365Z"/><path class="blue" d="M373 212Q399 172 423 211Q397 252 373 212ZM385 224 413 197"/></svg>